<svg width="26" height="26" viewBox="0 0 26 26" fill="none" xmlns="http://www.w3.org/2000/svg">
<path d="M13.0012 0C9.4706 0 9.02751 0.0154379 7.64083 0.0785427C6.25686 0.141918 5.31218 0.361025 4.48559 0.682507C3.63056 1.01455 2.90526 1.45872 2.18267 2.18159C1.45954 2.90418 1.01536 3.62947 0.682236 4.48423C0.359941 5.3111 0.140564 6.25604 0.0782715 7.63948C0.01625 9.02616 0 9.46951 0 13.0001C0 16.5308 0.0157087 16.9725 0.0785427 18.3592C0.142189 19.7431 0.361296 20.6878 0.682507 21.5144C1.01482 22.3694 1.45899 23.0947 2.18186 23.8173C2.90418 24.5405 3.62948 24.9857 4.48396 25.3178C5.3111 25.6392 6.25604 25.8584 7.63975 25.9217C9.02643 25.9848 9.46924 26.0003 12.9996 26.0003C16.5305 26.0003 16.9722 25.9848 18.3589 25.9217C19.7429 25.8584 20.6886 25.6392 21.5158 25.3178C22.3705 24.9857 23.0947 24.5405 23.8171 23.8173C24.5402 23.0947 24.9844 22.3694 25.3175 21.5147C25.6371 20.6878 25.8565 19.7429 25.9215 18.3594C25.9837 16.9728 26 16.5308 26 13.0001C26 9.46951 25.9837 9.02643 25.9215 7.63975C25.8565 6.25577 25.6371 5.3111 25.3175 4.4845C24.9844 3.62947 24.5402 2.90418 23.8171 2.18159C23.0939 1.45845 22.3708 1.01428 21.515 0.682507C20.6862 0.361025 19.741 0.141918 18.357 0.0785427C16.9703 0.0154379 16.5289 0 12.9972 0H13.0012ZM11.835 2.34273C12.1811 2.34219 12.5673 2.34273 13.0012 2.34273C16.4723 2.34273 16.8837 2.35519 18.2544 2.41748C19.5219 2.47544 20.2098 2.68724 20.668 2.86518C21.2747 3.1008 21.7072 3.38247 22.162 3.83748C22.617 4.29248 22.8987 4.72582 23.1348 5.33249C23.3128 5.79021 23.5248 6.47813 23.5825 7.74564C23.6448 9.11607 23.6583 9.52774 23.6583 12.9972C23.6583 16.4666 23.6448 16.8782 23.5825 18.2487C23.5246 19.5162 23.3128 20.2041 23.1348 20.6618C22.8992 21.2685 22.617 21.7005 22.162 22.1552C21.707 22.6102 21.275 22.8919 20.668 23.1275C20.2103 23.3063 19.5219 23.5175 18.2544 23.5755C16.8839 23.6378 16.4723 23.6513 13.0012 23.6513C9.52991 23.6513 9.11851 23.6378 7.74808 23.5755C6.48057 23.517 5.79264 23.3052 5.33412 23.1272C4.72744 22.8916 4.29411 22.6099 3.8391 22.1549C3.3841 21.6999 3.10243 21.2677 2.86626 20.6607C2.68832 20.203 2.47625 19.5151 2.41857 18.2476C2.35627 16.8772 2.34382 16.4655 2.34382 12.9939C2.34382 9.52233 2.35627 9.11282 2.41857 7.74239C2.47653 6.47488 2.68832 5.78696 2.86626 5.3287C3.10189 4.72203 3.3841 4.28869 3.8391 3.83369C4.29411 3.37868 4.72744 3.09701 5.33412 2.86084C5.79237 2.68209 6.48057 2.47084 7.74808 2.41261C8.94734 2.35844 9.4121 2.34219 11.835 2.33948V2.34273ZM19.9406 4.5013C19.0793 4.5013 18.3806 5.19924 18.3806 6.06077C18.3806 6.92203 19.0793 7.62079 19.9406 7.62079C20.8018 7.62079 21.5006 6.92203 21.5006 6.06077C21.5006 5.19951 20.8018 4.50075 19.9406 4.50075V4.5013ZM13.0012 6.32402C9.31433 6.32402 6.32511 9.31324 6.32511 13.0001C6.32511 16.687 9.31433 19.6749 13.0012 19.6749C16.6881 19.6749 19.6762 16.687 19.6762 13.0001C19.6762 9.31324 16.6878 6.32402 13.0009 6.32402H13.0012ZM13.0012 8.66676C15.3943 8.66676 17.3346 10.6068 17.3346 13.0001C17.3346 15.3932 15.3943 17.3335 13.0012 17.3335C10.6078 17.3335 8.66784 15.3932 8.66784 13.0001C8.66784 10.6068 10.6078 8.66676 13.0012 8.66676Z" fill="black"/>
</svg>
