<svg width="47" height="52" viewBox="0 0 47 52" fill="none" xmlns="http://www.w3.org/2000/svg">
<path d="M10.5879 16.1664L15.1927 25.0821C15.425 25.532 15.5412 25.7569 15.5412 25.9999C15.5412 26.2429 15.425 26.4678 15.1927 26.9177L10.5879 35.8334C9.44915 38.0381 8.8798 39.1405 9.38287 39.6568C9.88594 40.173 11.0027 39.6325 13.2362 38.5514L35.4476 27.8001C37.0635 27.018 37.8714 26.6269 37.8714 25.9999C37.8714 25.373 37.0635 24.9819 35.4476 24.1997L13.2362 13.4485C11.0027 12.3674 9.88594 11.8268 9.38287 12.3431C8.8798 12.8594 9.44915 13.9617 10.5879 16.1664Z" fill="#222222"/>
</svg>
