<svg width="26" height="26" viewBox="0 0 26 26" fill="none" xmlns="http://www.w3.org/2000/svg">
<path d="M26 13C26 20.1797 20.1797 26 13 26C5.8203 26 0 20.1797 0 13C0 5.8203 5.8203 0 13 0C20.1797 0 26 5.8203 26 13ZM13.4659 9.59723C12.2015 10.1232 9.67438 11.2117 5.88462 12.8628C5.26922 13.1075 4.94685 13.3469 4.9175 13.581C4.8679 13.9767 5.36334 14.1325 6.038 14.3446C6.12977 14.3735 6.22485 14.4034 6.32233 14.435C6.98609 14.6508 7.87896 14.9032 8.34313 14.9132C8.76417 14.9223 9.2341 14.7488 9.75293 14.3925C13.2938 12.0023 15.1216 10.7942 15.2364 10.7681C15.3174 10.7498 15.4295 10.7267 15.5056 10.7942C15.5816 10.8618 15.5741 10.9897 15.566 11.0241C15.517 11.2333 13.5722 13.0413 12.5658 13.977C12.252 14.2687 12.0295 14.4756 11.984 14.5228C11.8821 14.6287 11.7782 14.7288 11.6784 14.825C11.0617 15.4195 10.5993 15.8653 11.704 16.5932C12.2348 16.9431 12.6596 17.2323 13.0834 17.5209C13.5463 17.8361 14.0079 18.1505 14.6051 18.542C14.7573 18.6418 14.9026 18.7454 15.0442 18.8463C15.5828 19.2303 16.0667 19.5752 16.6645 19.5202C17.0119 19.4883 17.3707 19.1616 17.553 18.1874C17.9836 15.8851 18.8302 10.8967 19.0258 8.84112C19.0429 8.66102 19.0214 8.43053 19.0041 8.32935C18.9867 8.22817 18.9506 8.08401 18.819 7.9773C18.6633 7.85091 18.4228 7.82426 18.3153 7.82616C17.8263 7.83477 17.0762 8.09562 13.4659 9.59723Z" fill="black"/>
</svg>
