<svg width="26" height="26" viewBox="0 0 26 26" fill="none" xmlns="http://www.w3.org/2000/svg">
<path d="M14.625 1.65626e-05L17.8434 0C18.0758 1.16189 18.721 2.62772 19.8494 4.08191C20.9551 5.5068 22.4203 6.50002 24.375 6.50002V9.75002C21.5257 9.75002 19.3847 8.42798 17.875 6.77852V17.875C17.875 22.3623 14.2373 26 9.75 26C5.26269 26 1.625 22.3623 1.625 17.875C1.625 13.3877 5.26269 9.75002 9.75 9.75002V13C7.05761 13 4.875 15.1826 4.875 17.875C4.875 20.5674 7.05761 22.75 9.75 22.75C12.4424 22.75 14.625 20.5674 14.625 17.875V1.65626e-05Z" fill="black"/>
</svg>
