<svg xmlns="http://www.w3.org/2000/svg" xmlns:xlink="http://www.w3.org/1999/xlink" version="1.1" width="256" height="256" viewBox="0 0 256 256" xml:space="preserve">

<defs>
</defs>
<g style="stroke: none; stroke-width: 0; stroke-dasharray: none; stroke-linecap: butt; stroke-linejoin: miter; stroke-miterlimit: 10; fill: none; fill-rule: nonzero; opacity: 1;" transform="translate(1.4065934065934016 1.4065934065934016) scale(2.81 2.81)" >
	<path d="M 89.707 88.293 l -88 -88 C 1.42 0.006 0.991 -0.079 0.617 0.077 C 0.244 0.231 0 0.596 0 1 v 13 h 5.771 c 0.552 0 1 0.448 1 1 s -0.448 1 -1 1 H 0 v 13 h 3.886 c 0.552 0 1 0.448 1 1 s -0.448 1 -1 1 H 0 v 13 h 5.771 c 0.552 0 1 0.448 1 1 c 0 0.552 -0.448 1 -1 1 H 0 v 13 h 3.886 c 0.552 0 1 0.447 1 1 c 0 0.553 -0.448 1 -1 1 H 0 v 13 h 5.771 c 0.552 0 1 0.447 1 1 s -0.448 1 -1 1 H 0 v 13 c 0 0.553 0.448 1 1 1 h 13 v -6.761 c 0 -0.553 0.448 -1 1 -1 s 1 0.447 1 1 V 90 h 13 v -4.876 c 0 -0.553 0.448 -1 1 -1 s 1 0.447 1 1 V 90 h 13 v -6.761 c 0 -0.553 0.448 -1 1 -1 s 1 0.447 1 1 V 90 h 13 v -4.876 c 0 -0.553 0.447 -1 1 -1 s 1 0.447 1 1 V 90 h 13 v -6.761 c 0 -0.553 0.447 -1 1 -1 s 1 0.447 1 1 V 90 h 13 c 0.404 0 0.77 -0.243 0.924 -0.617 C 90.079 89.009 89.993 88.579 89.707 88.293 z M 53.138 75.383 C 52.983 75.757 52.618 76 52.214 76 H 15 c -0.552 0 -1 -0.447 -1 -1 V 37.787 c 0 -0.404 0.244 -0.769 0.617 -0.924 c 0.374 -0.156 0.804 -0.07 1.09 0.217 l 37.213 37.213 C 53.207 74.579 53.293 75.009 53.138 75.383 z" style="stroke: none; stroke-width: 1; stroke-dasharray: none; stroke-linecap: butt; stroke-linejoin: miter; stroke-miterlimit: 10; fill: rgb(0,0,0); fill-rule: nonzero; opacity: 1;" transform=" matrix(1 0 0 1 0 0) " stroke-linecap="round" />
</g>
</svg>